:version 1.10
:name ASF
:units
  mass 1
  length 1
  angle deg
:documentation
  ASF file generated by Kaydara
:root
  axis xyz
  order  tx ty tz rx ry rz
  position 0 0 0
  orientation 0 0 0
:bonedata
  begin
    id 1
    name RightUpLegDummy
    direction -0.65628 -0.754516 0.00165102
    length 4.76918
    axis 0 0 0 xyz
  end
  begin
    id 2
    name RightUpLeg
    direction -0.145584 -0.923362 0.355256
    length 17.9961
    axis -24.7611 -13.1006 1.78531 xyz
    dof rx ry rz
  end
  begin
    id 3
    name RightLeg
    direction 0.263379 0.172355 -0.949171
    length 13.3386
    axis 89.6202 -21.1929 12.3855 xyz
    dof rx ry rz
  end
  begin
    id 4
    name RightFoot
    direction 0.224283 -0.968777 -0.105675
    length 5.86697
    axis 56.995 -39.6905 17.3365 xyz
    dof rx ry rz
  end
  begin
    id 5
    name RightToes
    direction -0.0806345 -0.9037 0.420506
    length 4.75197
    axis 146.825 -39.7828 17.6019 xyz
    dof rx ry rz
  end
  begin
    id 6
    name SpineDummy
    direction -3.39852e-014 1 9.33296e-014
    length 8.13779
    axis 0 0 0 xyz
  end
  begin
    id 7
    name Spine
    direction -0.156609 0.733703 0.661176
    length 7.14978
    axis 41.2365 5.68757 17.0844 xyz
    dof rx ry rz
  end
  begin
    id 8
    name Spine1
    direction 0 0 0
    length 0
    axis 42.8809 47.8308 -3.36039 xyz
    dof rx ry rz
  end
  begin
    id 9
    name HEadDummy
    direction 0.546431 0.701947 0.456819
    length 3.55512
    axis 42.8809 47.8308 -3.36039 xyz
  end
  begin
    id 10
    name HEad
    direction 0.23444 0.828559 0.508457
    length 7.35827
    axis 51.1864 49.2662 27.4903 xyz
    dof rx ry rz
  end
  begin
    id 11
    name LeftShoulder1Dummy
    direction 0.431183 0.475873 -0.766568
    length 2.49352
    axis 42.8809 47.8308 -3.36039 xyz
  end
  begin
    id 12
    name LeftShoulder1
    direction 0.268187 -0.383402 -0.883786
    length 4.48604
    axis -119.517 0.106469 35.1736 xyz
    dof rx ry rz
  end
  begin
    id 13
    name LeftArm
    direction 0.380567 -0.703221 -0.600541
    length 10.1142
    axis -5.41825 36.2925 7.8293 xyz
    dof rx ry rz
  end
  begin
    id 14
    name LeftForeArm
    direction 0.541071 -0.732356 -0.413396
    length 9.39839
    axis 4.65387 33.7604 7.81644 xyz
    dof rx ry rz
  end
  begin
    id 15
    name LeftHand
    direction 0.847511 -0.389379 -0.360707
    length 3.66142
    axis 7.65593 21.1436 -24.6758 xyz
    dof rx ry rz
  end
  begin
    id 16
    name RightShoulderDummy
    direction -0.692546 0.541855 0.476208
    length 2.49352
    axis 42.8809 47.8308 -3.36039 xyz
  end
  begin
    id 17
    name RightShoulder
    direction -0.870808 -0.316653 0.376065
    length 4.48602
    axis 141.571 51.133 -100.254 xyz
    dof rx ry rz
  end
  begin
    id 18
    name RightArm
    direction 0.366897 -0.87275 0.322015
    length 10.1142
    axis 92.3258 71.2036 138.917 xyz
    dof rx ry rz
  end
  begin
    id 19
    name RightForeArm
    direction 0.702487 -0.694568 0.155197
    length 9.39835
    axis 153.863 41.5092 -176.604 xyz
    dof rx ry rz
  end
  begin
    id 20
    name RightHand
    direction 0.79502 -0.601276 0.0800636
    length 3.66142
    axis 154.247 4.59222 142.9 xyz
    dof rx ry rz
  end
  begin
    id 21
    name LeftUpLegDummy
    direction 0.65628 -0.754516 0.00165102
    length 4.76919
    axis 0 0 0 xyz
  end
  begin
    id 22
    name LeftUpLeg
    direction -0.1277 -0.689368 0.713067
    length 17.9961
    axis -48.3385 -17.8675 0.791927 xyz
    dof rx ry rz
  end
  begin
    id 23
    name LeftLeg
    direction 0.109849 -0.991246 -0.0732378
    length 13.3386
    axis -2.05791 -7.30784 1.72042 xyz
    dof rx ry rz
  end
  begin
    id 24
    name LeftFoot
    direction 0.0448355 -0.272614 0.961078
    length 5.86697
    axis -18.7733 -7.89606 10.2113 xyz
    dof rx ry rz
  end
  begin
    id 25
    name LeftToes
    direction -0.18506 0.293668 0.937823
    length 4.75197
    axis 71.2267 -7.89606 10.2113 xyz
    dof rx ry rz
  end
:hierarchy
  begin
    root RightUpLegDummy SpineDummy LeftUpLegDummy
    RightUpLegDummy RightUpLeg
    RightUpLeg RightLeg
    RightLeg RightFoot
    RightFoot RightToes
    SpineDummy Spine
    Spine Spine1
    Spine1 HEadDummy LeftShoulder1Dummy RightShoulderDummy
    HEadDummy HEad
    LeftShoulder1Dummy LeftShoulder1
    LeftShoulder1 LeftArm
    LeftArm LeftForeArm
    LeftForeArm LeftHand
    RightShoulderDummy RightShoulder
    RightShoulder RightArm
    RightArm RightForeArm
    RightForeArm RightHand
    LeftUpLegDummy LeftUpLeg
    LeftUpLeg LeftLeg
    LeftLeg LeftFoot
    LeftFoot LeftToes
  end

:SAMPLES-PER-SECOND 30
:FULLY-SPECIFIED
:DEGREES
614
root  15.114 38.1354 -15.9564 129.389 -87.7514 -132.395
RightUpLeg  5.08371 19.8671 -2.93643
RightLeg  -77.6575 -10.2011 -9.19786
RightFoot  26.3807 -0.352512 -9.77949
RightToes  -1.27222e-014 -6.36111e-015 6.36111e-015
Spine  -20.0177 -20.2569 -15.7808
Spine1  2.06707 -13.9558 45.4694
HEad  -4.59343 -69.0441 -19.76
LeftShoulder1  6.36111e-015 -1.33558e-015 6.49777e-015
LeftArm  44.2493 -1.86047 -21.8677
LeftForeArm  -12.271 -39.1289 6.2499
LeftHand  -2.84967 -6.79018 -11.3832
RightShoulder  -4.77083e-015 -6.36111e-015 -3.18055e-015
RightArm  37.1151 -22.1564 -4.96683
RightForeArm  -27.7264 9.42756 -23.0896
RightHand  -1.02361 5.78776 0.235048
LeftUpLeg  28.897 1.82762 21.9693
LeftLeg  -5.43001 -7.82775 -1.11429
LeftFoot  9.35387 6.426 -16.5777
LeftToes  1.27222e-014 -5.20697e-012 1.80337e-011
615
root  15.1264 38.8058 -15.7876 82.4666 -88.7185 -86.5076
RightUpLeg  7.14146 13.0296 -0.683496
RightLeg  -77.8863 -11.6275 -4.90381
RightFoot  21.4884 0.462538 -9.58119
RightToes  -1.27222e-014 -6.36111e-015 6.36111e-015
Spine  -21.2145 -20.0653 -15.2485
Spine1  2.32781 -13.9722 44.7846
HEad  0.895308 -69.0315 -23.8052
LeftShoulder1  6.36111e-015 -1.33558e-015 6.49777e-015
LeftArm  43.1132 4.50533 -17.2456
LeftForeArm  -9.98038 -35.6741 4.09236
LeftHand  -2.64346 -6.09618 -10.9743
RightShoulder  -4.77083e-015 -6.36111e-015 -3.18055e-015
RightArm  32.8431 -18.4683 -0.792845
RightForeArm  -25.2873 8.54334 -21.3752
RightHand  -0.653463 4.48941 -1.38773
LeftUpLeg  30.1757 6.68848 19.16
LeftLeg  -2.22294 -15.0965 -1.68653
LeftFoot  2.15015 5.81511 -18.2472
LeftToes  1.27222e-014 -5.20697e-012 1.80337e-011
616
root  15.1541 39.0784 -15.6495 13.3564 -88.1841 -17.8332
RightUpLeg  7.71719 7.7077 1.33653
RightLeg  -78.8067 -15.2221 5.4282
RightFoot  16.337 1.52292 -9.75312
RightToes  -1.27222e-014 -6.36111e-015 6.36111e-015
Spine  -22.4824 -20.0973 -15.4684
Spine1  2.15087 -13.8048 44.4962
HEad  7.05349 -69.1902 -28.5584
LeftShoulder1  6.36111e-015 -1.33558e-015 6.49777e-015
LeftArm  42.7727 9.42341 -12.3888
LeftForeArm  -10.4721 -29.5202 2.1612
LeftHand  -2.42291 -5.39335 -10.3333
RightShoulder  -4.77083e-015 -6.36111e-015 -3.18055e-015
RightArm  29.6524 -14.8239 1.69713
RightForeArm  -23.5732 7.56215 -19.9637
RightHand  -0.446874 4.06917 -2.75541
LeftUpLeg  30.3489 11.2607 15.9878
LeftLeg  1.16908 -14.8767 -2.1308
LeftFoot  -4.52105 5.24064 -20.3934
LeftToes  1.27222e-014 -5.20697e-012 1.80337e-011
617
root  15.2081 38.9686 -15.5062 -7.59238 -86.9579 2.79649
RightUpLeg  7.9789 4.65252 3.96612
RightLeg  -78.2897 -17.2325 10.0951
RightFoot  13.6323 2.2003 -10.1031
RightToes  -1.27222e-014 -6.36111e-015 6.36111e-015
Spine  -23.9459 -19.5332 -15.3464
Spine1  2.42531 -13.2517 43.0541
HEad  12.085 -70.3126 -32.3663
LeftShoulder1  6.36111e-015 -1.33558e-015 6.49777e-015
LeftArm  42.6864 11.5934 -9.05558
LeftForeArm  -11.1997 -22.4694 0.344728
LeftHand  -2.1991 -4.70341 -9.72632
RightShoulder  -4.77083e-015 -6.36111e-015 -3.18055e-015
RightArm  27.045 -12.7006 2.20127
RightForeArm  -22.6886 6.72125 -19.0353
RightHand  -0.201436 3.5541 -4.20275
LeftUpLeg  30.1492 15.4624 13.0568
LeftLeg  3.77582 -10.627 -1.73292
LeftFoot  -7.6018 4.60358 -20.1184
LeftToes  1.27222e-014 -5.20697e-012 1.80337e-011
618
root  15.2492 38.5164 -15.3341 -11.369 -85.9547 5.90961
RightUpLeg  9.75883 3.88335 7.34212
RightLeg  -77.6107 -16.3838 7.6711
RightFoot  12.7367 3.68412 -12.4575
RightToes  -1.27222e-014 -6.36111e-015 6.36111e-015
Spine  -25.2516 -18.0588 -14.3634
Spine1  2.47919 -12.3709 40.508
HEad  18.2322 -71.6459 -36.9296
LeftShoulder1  6.36111e-015 -1.33558e-015 6.49777e-015
LeftArm  42.7885 12.1019 -6.73361
LeftForeArm  -10.6106 -17.3687 -0.803554
LeftHand  -2.06315 -4.26702 -9.58461
RightShoulder  -4.77083e-015 -6.36111e-015 -3.18055e-015
RightArm  25.3734 -11.9378 1.57208
RightForeArm  -22.3039 5.80176 -18.2793
RightHand  0.172204 2.7628 -6.13627
LeftUpLeg  31.2812 18.1298 10.5083
LeftLeg  3.6314 -8.17902 -1.27119
LeftFoot  -7.18818 3.78708 -16.3001
LeftToes  1.27222e-014 -5.20697e-012 1.80337e-011
619
root  15.2489 37.7919 -15.1504 -11.7736 -85.0157 5.23131
RightUpLeg  12.5042 6.08746 11.1035
RightLeg  -78.0956 -15.834 6.62663
RightFoot  10.4842 6.03873 -16.2774
RightToes  -1.27222e-014 -6.36111e-015 6.36111e-015
Spine  -25.8152 -16.4972 -13.6302
Spine1  1.83548 -11.4359 38.4924
HEad  24.1844 -72.3928 -41.5427
LeftShoulder1  6.36111e-015 -1.33558e-015 6.49777e-015
LeftArm  43.6473 11.3979 -5.24711
LeftForeArm  -9.31925 -14.373 -1.35054
LeftHand  -2.07668 -4.30276 -9.65603
RightShoulder  -4.77083e-015 -6.36111e-015 -3.18055e-015
RightArm  24.7253 -10.6183 0.377417
RightForeArm  -21.833 5.1644 -17.6911
RightHand  0.404789 2.54579 -7.81243
LeftUpLeg  33.9066 18.7847 8.0743
LeftLeg  1.2837 -7.46558 -1.10851
LeftFoot  -8.73991 2.59598 -11.8602
LeftToes  1.27222e-014 -5.20697e-012 1.80337e-011
620
root  15.2657 36.8793 -14.9664 -16.8794 -83.6506 9.17114
RightUpLeg  13.3704 9.2547 13.2818
RightLeg  -76.1001 -18.0072 10.3804
RightFoot  5.59895 7.43983 -18.2847
RightToes  -1.27222e-014 -6.36111e-015 6.36111e-015
Spine  -26.0256 -15.5298 -13.7266
Spine1  2.46841 -10.5757 36.8601
HEad  23.755 -74.0104 -41.0322
LeftShoulder1  6.36111e-015 -1.33558e-015 6.49777e-015
LeftArm  44.3519 7.98468 -6.1442
LeftForeArm  -7.79545 -12.0032 -2.08747
LeftHand  -2.11043 -4.45587 -9.33727
RightShoulder  -4.77083e-015 -6.36111e-015 -3.18055e-015
RightArm  23.9272 -8.73362 -2.50606
RightForeArm  -22.1291 5.02438 -17.7123
RightHand  0.384619 2.98281 -8.63604
LeftUpLeg  35.6111 18.7055 5.71098
LeftLeg  0.991041 -6.88246 -1.01565
LeftFoot  -15.1367 1.7566 -10.755
LeftToes  1.27222e-014 -5.20697e-012 1.80337e-011
621
root  15.3621 35.9619 -14.7691 -24.8243 -81.2704 16.1633
RightUpLeg  11.1521 9.77665 11.3652
RightLeg  -69.973 -21.3805 12.6735
RightFoot  1.27529 7.39501 -17.5177
RightToes  -1.27222e-014 -6.36111e-015 6.36111e-015
Spine  -26.5735 -14.9153 -13.657
Spine1  6.25657 -9.77787 33.3601
HEad  14.8311 -77.7814 -32.331
LeftShoulder1  6.36111e-015 -1.33558e-015 6.49777e-015
LeftArm  42.9593 1.67927 -8.01376
LeftForeArm  -4.47164 -11.7926 -4.09957
LeftHand  -2.00282 -4.18619 -8.69351
RightShoulder  -4.77083e-015 -6.36111e-015 -3.18055e-015
RightArm  22.1175 -9.33641 -7.91944
RightForeArm  -24.6109 4.73997 -18.4228
RightHand  0.34536 3.32454 -9.09536
LeftUpLeg  34.7291 19.6752 4.1244
LeftLeg  5.35508 -8.39706 -1.33104
LeftFoot  -21.6827 1.26786 -11.9177
LeftToes  1.27222e-014 -5.20697e-012 1.80337e-011
622
root  15.4717 35.2934 -14.5597 -27.8969 -78.0793 18.4056
RightUpLeg  8.59901 7.56572 7.24495
RightLeg  -63.5257 -22.7719 11.1296
RightFoot  -0.992898 7.06851 -16.3161
RightToes  -1.27222e-014 -6.36111e-015 6.36111e-015
Spine  -27.4533 -14.0521 -12.3959
Spine1  11.4697 -8.78628 28.3487
HEad  3.18795 -82.0887 -19.246
LeftShoulder1  6.36111e-015 -1.33558e-015 6.49777e-015
LeftArm  39.4792 -4.56313 -8.24063
LeftForeArm  0.939106 -14.7459 -7.12099
LeftHand  -1.83139 -3.68292 -8.3343
RightShoulder  -4.77083e-015 -6.36111e-015 -3.18055e-015
RightArm  20.8521 -13.2378 -13.6565
RightForeArm  -28.4447 3.69078 -18.9576
RightHand  0.392076 3.41816 -9.78866
LeftUpLeg  33.1886 21.4113 3.78175
LeftLeg  11.0034 -12.1248 -2.70142
LeftFoot  -23.6943 1.06195 -11.9047
LeftToes  1.27222e-014 -5.20697e-012 1.80337e-011
